<?xml version="1.0" encoding="UTF-8" standalone="no"?>
<!DOCTYPE svg  PUBLIC '-//W3C//DTD SVG 1.1//EN'  'http://www.w3.org/Graphics/SVG/1.1/DTD/svg11.dtd'>
<svg xmlns="http://www.w3.org/2000/svg">
<defs>
<font id="Orator-Regular" horiz-adv-x="600">
<font-face underline-position="-28" font-weight="400" descent="-200" panose-1="2 11 5 9 0 0 0 0 0 0" units-per-em="1000" unicode-range="U+0020-2122" bbox="0 -288 600 841" x-height="521" underline-thickness="63" font-family="Orator" ascent="800" cap-height="667"/>
<missing-glyph d="M33 0v666h265v-666h-265zM66 33h199v600h-199v-600z"/>
<glyph glyph-name=".notdef" d="M33 0v666h265v-666h-265zM66 33h199v600h-199v-600z"/>
<glyph glyph-name=".null" horiz-adv-x="0"/>
<glyph glyph-name="nonmarkingreturn"/>
<glyph glyph-name="space" unicode=" "/>
<glyph glyph-name="exclam" d="M254 0v148h92v-148h-92zM331 207h-64l-18 460h102z" unicode="!"/>
<glyph glyph-name="quotedbl" d="M333 676h92v-111l-27 -135h-38l-27 135v111zM176 676h92v-111l-27 -135h-38l-27 135v111z" unicode='&quot;'/>
<glyph glyph-name="numbersign" d="M329 -96h-45l165 901h44l-58 -321h135l-9 -44h-134l-28 -157h134l-8 -44h-134zM267 805h44l-162 -901h-45l61 335h-134l8 44h134l28 157h-134l8 44h134z" unicode="#"/>
<glyph glyph-name="dollar" d="M262 137v181q-54 14 -90 50t-36 91q0 51 37 88t89 46v83h70v-83q40 -3 76 -27t64 -60l-49 -43q-33 37 -52 51t-39 16v-164q66 -10 109 -48t43 -102q0 -30 -12 -56t-34 -45t-50 -30t-56 -11v-83h-70v83q-44 2 -82 30t-64 69l55 40l1 -1q23 -34 42 -52t48 -23zM262 385v145 q-24 -6 -40 -28t-16 -46t16 -43t40 -28zM332 298v-161q34 2 58 24t24 56q0 32 -24 54t-58 27z" unicode="$"/>
<glyph glyph-name="percent" d="M263 551q1 29 -11 52t-38 23t-38 -23t-12 -52q0 -30 12 -53t38 -23t38 23t11 53zM482 675l36 -20l-376 -664l-60 32l330 580q-19 -8 -45 -8q-27 0 -53 9q9 -25 9 -53q0 -53 -29 -89t-80 -37q-52 1 -81 37t-29 89t29 89t81 36q21 0 60 -12l7 -2l4 -1q23 -8 40 -12t38 -4 q33 0 63 7t56 23zM433 116q1 30 -11 52t-38 23q-26 -1 -38 -23t-12 -52t12 -52t38 -23q26 1 38 23t11 52zM493 116q0 -52 -29 -88t-80 -37q-52 1 -81 37t-29 88t29 88t81 37q51 -1 80 -37t29 -88z" unicode="%"/>
<glyph glyph-name="ampersand" d="M211 284l-15 20q-26 34 -38 60t-11 62q-1 60 35 98t95 38q58 0 95 -40t37 -96q-1 -48 -25 -82t-84 -74l98 -133q14 21 20 45t9 53l66 -13q-5 -40 -18 -76t-35 -66l41 -57l-51 -37l-36 49q-57 -44 -120 -44q-66 0 -112 43t-46 109q0 45 25 77t70 64zM264 319l21 15 q29 22 45 41t16 48q0 34 -19 55t-53 21q-30 1 -47 -19t-17 -50q0 -25 12 -49t42 -62zM358 87l-110 149q-30 -21 -46 -41t-16 -51q0 -40 26 -65t66 -25q22 0 43 9t37 24z" unicode="&amp;"/>
<glyph glyph-name="quotesingle" d="M254 676h92v-111l-27 -135h-38l-27 135v111z" unicode="&apos;"/>
<glyph glyph-name="parenleft" d="M362 676l40 -39q-64 -61 -94 -148t-30 -184t30 -184t94 -148l-40 -40q-74 63 -114 165t-40 207q0 106 40 207t114 164z" unicode="("/>
<glyph glyph-name="parenright" d="M198 637l40 39q74 -63 114 -164t40 -207q0 -105 -40 -207t-114 -165l-40 40q64 61 94 148t30 184t-30 184t-94 148z" unicode=")"/>
<glyph glyph-name="asterisk" d="M300 548q-12 0 -20 -8t-8 -20t8 -20t20 -8t20 8t8 20t-8 20t-20 8zM143 564l100 -10l-63 74l68 48l52 -94l52 94l68 -48l-63 -74l100 10v-88l-100 9l63 -73l-68 -49l-52 95l-52 -95l-68 49l63 73l-100 -9v88z" unicode="*"/>
<glyph glyph-name="plus" d="M566 382v-44h-244v-244h-44v244h-244v44h244v244h44v-244h244z" unicode="+"/>
<glyph glyph-name="comma" d="M265 148h92v-45q1 -49 -31 -93t-80 -69l-23 55q24 15 33 38t9 53v61z" unicode=","/>
<glyph glyph-name="hyphen" d="M189 229v63h222v-63h-222z" unicode="-"/>
<glyph glyph-name="period" d="M254 0v148h92v-148h-92z" unicode="."/>
<glyph glyph-name="slash" d="M175 -27h-46l296 774h46z" unicode="/"/>
<glyph glyph-name="zero" d="M300 613q-39 0 -63 -19q-24 -18 -35 -54q-10 -36 -14 -84t-4 -123q0 -95 8 -152t24 -84q14 -27 34 -35t50 -8q32 0 52 10t36 38q14 28 21 84t7 147q0 93 -8 150t-22 85t-35 36q-20 8 -51 9zM300 676q60 0 98 -27t58 -69q19 -42 25 -88t6 -96q0 -17 -1 -40v-23 q0 -78 -6 -135q-6 -56 -24 -104t-56 -76t-100 -27q-62 0 -100 27q-38 28 -56 74t-24 104t-6 137q0 85 4 141t23 103q18 47 56 73t103 26z" unicode="0"/>
<glyph glyph-name="one" d="M279 60v526l-122 -47l-21 61l210 80v-620h143v-60h-378v60h168z" unicode="1"/>
<glyph glyph-name="two" d="M114 0v60l247 319l2 3q29 37 41 62t13 60q1 48 -29 78t-78 31q-56 1 -88 -37t-41 -97l-66 9q13 88 61 138t134 50q80 0 128 -46t49 -124q-1 -44 -19 -82t-51 -81l-218 -283h287v-60h-372z" unicode="2"/>
<glyph glyph-name="three" d="M192 350v54l197 203h-278v60h370v-60l-185 -189q83 0 138 -45t55 -125q0 -64 -32 -116t-89 -87q-45 -28 -101 -41t-147 -13v63q78 0 121 8t71 24q47 26 77 68t30 92q-1 30 -13 52t-33 35t-47 19t-56 6q-19 0 -56 -5q-14 -2 -22 -3z" unicode="3"/>
<glyph glyph-name="four" d="M371 167h-261l99 513l67 -18l-86 -435h181v339h67v-339h53v-60h-53v-167h-67v167z" unicode="4"/>
<glyph glyph-name="five" d="M137 325v342h342v-60h-275v-205q58 21 99 21q77 0 129 -48t52 -129q0 -64 -32 -117t-86 -88q-41 -26 -98 -38t-152 -12v63q70 0 117 6t78 23q47 25 75 69t28 94q0 54 -32 84t-86 30q-30 0 -54 -9t-57 -26h-48z" unicode="5"/>
<glyph glyph-name="six" d="M183 296q-1 -76 9 -124t26 -74t37 -34q20 -10 46 -10q57 0 87 44t30 109q0 29 -6 57t-18 50t-34 34t-54 13q-33 1 -62 -17t-61 -48zM460 618l-38 -55q-26 24 -52 37t-55 13q-43 1 -69 -23t-40 -60t-18 -76q-4 -39 -5 -84q31 26 63 40t70 14q46 0 79 -18t53 -47 q20 -30 30 -68t10 -81q0 -94 -50 -156t-142 -63q-60 0 -98 32t-56 83t-24 105t-5 115q1 62 7 120t26 110t61 86t105 34q42 0 80 -15t68 -43z" unicode="6"/>
<glyph glyph-name="seven" d="M153 14l266 593h-275v60h372l-303 -680z" unicode="7"/>
<glyph glyph-name="eight" d="M358 345q65 -33 99 -72t34 -103q0 -80 -55 -130t-136 -49q-81 -1 -136 49t-55 130q0 64 34 103t100 72q-53 33 -83 71t-29 90q0 74 48 122t121 48t121 -48t48 -122q0 -52 -29 -90t-82 -71zM300 380q5 3 14 9q43 29 64 53t21 64q-1 47 -27 77t-72 30t-72 -30t-27 -77 q0 -41 21 -65t64 -52q9 -6 14 -9zM300 311q-2 -2 -19 -12q-52 -31 -77 -58t-25 -74q0 -51 35 -82t86 -31t86 31t35 82q0 47 -25 74t-77 58q-16 10 -19 12z" unicode="8"/>
<glyph glyph-name="nine" d="M417 370q0 74 -9 122t-25 75q-17 26 -37 36t-46 10q-58 1 -88 -43t-29 -111q0 -31 5 -57t18 -49t35 -35t54 -12t62 18t60 46zM140 49l38 55q26 -24 52 -37t56 -13q44 0 70 24t38 60q12 37 18 75q4 38 5 84q-31 -27 -63 -41t-69 -13q-46 0 -79 17q-34 17 -54 47 q-20 31 -30 69t-9 81q-1 95 49 157t142 62q61 0 99 -32t56 -82t23 -106q5 -54 5 -115q-1 -63 -7 -121t-26 -110t-61 -86t-105 -33q-42 0 -80 15t-68 43z" unicode="9"/>
<glyph glyph-name="colon" d="M254 284v148h92v-148h-92zM254 0v148h92v-148h-92z" unicode=":"/>
<glyph glyph-name="semicolon" d="M265 284v148h92v-148h-92zM265 148h92v-45q1 -49 -31 -93t-80 -69l-23 55q24 15 33 38t9 53v61z" unicode=";"/>
<glyph glyph-name="less" d="M98 360l379 360l25 -32l-340 -328l340 -328l-25 -32z" unicode="&lt;"/>
<glyph glyph-name="equal" d="M566 315v-44h-532v44h532zM566 449v-44h-532v44h532z" unicode="="/>
<glyph glyph-name="greater" d="M123 720l379 -360l-379 -360l-25 32l340 328l-340 328z" unicode="&gt;"/>
<glyph glyph-name="question" d="M250 0v148h92v-148h-92zM331 220h-69v17q1 29 3 47t8 30q5 14 17 27t35 32l10 9q37 34 57 60t20 63q0 48 -26 78t-75 30q-55 1 -86 -39t-41 -99l-66 17q16 88 62 136t129 48q77 0 125 -46t48 -123q0 -53 -25 -91t-74 -80q-1 -1 -2 -1q-33 -29 -41 -45t-9 -56v-14z" unicode="?"/>
<glyph glyph-name="at" d="M346 389l5 26q-4 -1 -11 -2q-24 -3 -38 -9t-24 -18q-18 -22 -32 -57t-13 -64q1 -13 7 -23t19 -9q27 0 51 35t36 121zM502 131l24 -63q-56 -37 -118 -57t-128 -20q-49 0 -95 17q-46 16 -84 52t-60 91t-22 127q-1 71 19 141q20 71 58 129t97 93q58 35 132 35q43 0 87 -16 t83 -51q39 -34 63 -87t23 -124q-1 -36 -9 -76t-26 -74t-48 -56q-29 -22 -69 -22q-29 0 -45 8t-38 33q-26 -21 -44 -31t-48 -10q-40 0 -66 25t-25 65q0 39 15 84t39 75q23 30 62 45t118 15l14 -1h17l-25 -151l-1 -8q-2 -15 -4 -27t-2 -19q0 -18 8 -29t26 -11q23 0 39 17 q16 16 25 42t13 52t4 49q0 99 -53 159t-139 61q-43 -1 -85 -23t-74 -66t-52 -106q-19 -64 -19 -142q0 -102 53 -162t143 -60q57 0 108 20t109 57z" unicode="@"/>
<glyph glyph-name="A" d="M375 266l-74 312h-2l-74 -312h150zM391 206h-182l-52 -219l-66 18l169 662h80l169 -662l-66 -18z" unicode="A"/>
<glyph glyph-name="B" d="M337 0h-215v60h54v547h-54v60h204q60 0 104 -46t44 -122q0 -43 -18 -76t-53 -53q55 -24 79 -66t23 -104q0 -100 -47 -150t-121 -50zM243 393h60q101 0 101 106q0 60 -30 84t-92 24h-39v-214zM243 60h91q47 0 74 35t27 106q1 71 -31 101t-88 31h-73v-273z" unicode="B"/>
<glyph glyph-name="C" d="M432 138l55 -38q-31 -50 -75 -80t-98 -29q-62 1 -102 33t-61 84t-29 109t-8 116q0 60 8 117t29 109q21 53 61 85t102 32q54 0 94 -28t69 -80l-57 -34q-18 35 -44 57t-62 22q-43 0 -70 -29q-28 -29 -40 -73t-16 -89t-4 -89q0 -43 4 -88t16 -89t40 -73q27 -29 70 -29 q36 0 66 24t52 60z" unicode="C"/>
<glyph glyph-name="D" d="M240 607v-547h55q36 0 60 8t43 36q20 26 30 82t10 147t-11 147t-29 83t-39 35t-48 9h-71zM173 607h-54v60h176q55 -1 93 -15t65 -50t41 -102t14 -167q0 -71 -6 -125t-25 -101q-20 -47 -64 -77t-116 -30h-178v60h54v547z" unicode="D"/>
<glyph glyph-name="E" d="M157 0v667h325v-60h-258v-220h213v-60h-213v-267h258v-60h-325z" unicode="E"/>
<glyph glyph-name="F" d="M176 0v667h328v-60h-261v-220h219v-60h-219v-327h-67z" unicode="F"/>
<glyph glyph-name="G" d="M476 346v-297q-34 -27 -74 -43t-81 -15q-61 1 -101 33t-62 84t-30 108q-8 58 -9 116q0 56 8 114t29 110q20 52 60 86t98 34q53 0 95 -28t72 -79l-59 -36q-20 37 -48 59t-64 21q-40 -1 -64 -31t-36 -76t-17 -90q-4 -45 -4 -86q0 -82 11 -137q12 -55 30 -85t42 -42t50 -12 q22 0 46 8t41 23v201h-125v60h192z" unicode="G"/>
<glyph glyph-name="H" d="M130 0v667h67v-280h206v280h67v-667h-67v327h-206v-327h-67z" unicode="H"/>
<glyph glyph-name="I" d="M266 60v547h-90v60h248v-60h-91v-547h91v-60h-248v60h90z" unicode="I"/>
<glyph glyph-name="J" d="M109 242h67v-67q0 -22 5 -43q5 -20 17 -38t30 -29q20 -11 47 -11q44 0 70 36t26 94v483h67v-490q0 -90 -49 -138t-119 -48q-67 1 -114 49t-47 140v62z" unicode="J"/>
<glyph glyph-name="K" d="M229 667v-275h18l186 288l54 -34l-183 -282l219 -343l-56 -34l-215 345h-23v-332h-67v667h67z" unicode="K"/>
<glyph glyph-name="L" d="M169 0v667h67v-607h274v-60h-341z" unicode="L"/>
<glyph glyph-name="M" d="M300 384l96 283h84l20 -667h-71l-13 556h-2l-114 -335l-114 335h-2l-13 -556h-70l20 667h83z" unicode="M"/>
<glyph glyph-name="N" d="M126 0v667h84l198 -561l2 2l-3 149v410h67v-667h-84l-198 562l-2 -2l3 -151v-409h-67z" unicode="N"/>
<glyph glyph-name="O" d="M300 613q-40 1 -64 -25t-34 -67t-14 -85q-3 -44 -3 -102q0 -144 24 -212t91 -68q41 0 65 25q25 25 35 65t12 84t3 106q-1 67 -3 112q-2 46 -13 84t-35 60t-64 23zM300 676q64 0 102 -36t56 -90t22 -106t5 -110q-1 -56 -5 -108t-22 -108q-18 -54 -56 -90t-102 -37 q-63 0 -102 35q-38 35 -56 89t-22 107t-5 112q0 58 5 112t23 106q19 54 57 89t100 35z" unicode="O"/>
<glyph glyph-name="P" d="M229 607v-250l94 1q46 0 72 34t26 98q1 60 -29 88t-86 29h-77zM229 297v-297h-67v667h145q89 0 137 -46t47 -131q1 -90 -45 -142t-117 -51h-100z" unicode="P"/>
<glyph glyph-name="Q" d="M353 76l-85 101l51 43l70 -83q14 43 20 92t6 102q1 41 -3 85t-15 90t-35 76q-24 31 -63 31q-38 0 -62 -31q-25 -31 -35 -77q-10 -47 -14 -91t-3 -86q-1 -36 3 -80t16 -89t34 -75t57 -30q36 0 58 22zM435 81l49 -58l-51 -42l-39 47q-42 -37 -94 -37q-36 0 -69 19t-59 60 t-42 107q-15 66 -15 156q-1 167 51 255t134 88q37 0 70 -19t59 -60t41 -107t15 -157q0 -73 -11 -137t-39 -115z" unicode="Q"/>
<glyph glyph-name="R" d="M162 0v667h180q26 0 52 -11q26 -12 48 -34t36 -56q13 -34 13 -76q-1 -66 -29 -117t-86 -71l138 -286l-60 -29l-150 310h-75v-297h-67zM229 607v-250h98q45 3 69 35t25 98q0 63 -28 90t-82 27h-82z" unicode="R"/>
<glyph glyph-name="S" d="M461 525l-65 -10q-10 43 -32 71t-60 27q-44 -1 -66 -31t-22 -76q0 -22 4 -36t14 -27q12 -13 34 -29t64 -42q72 -42 105 -82t33 -111q0 -82 -44 -135t-124 -53q-83 1 -123 49t-48 135l67 9q8 -66 29 -98t77 -32q45 0 72 30t27 89q0 29 -9 53t-26 42q-22 23 -84 59l-7 4 q-37 22 -57 36t-37 33q-16 18 -25 44t-9 62q0 70 43 120t112 50q66 0 104 -41t53 -110z" unicode="S"/>
<glyph glyph-name="T" d="M268 0v607h-144v60h352v-60h-141v-607h-67z" unicode="T"/>
<glyph glyph-name="U" d="M137 667h67v-485q0 -28 4 -50t14 -40t29 -28t49 -10t50 10t29 28q10 18 14 40t4 50v485h67v-505q0 -78 -45 -124t-119 -47q-75 1 -119 47t-44 121v508z" unicode="U"/>
<glyph glyph-name="V" d="M300 181l138 499l68 -14l-198 -679h-16l-198 679l68 14z" unicode="V"/>
<glyph glyph-name="W" d="M441 680l67 -13l-67 -680h-29l-111 403h-2l-111 -403h-29l-67 680l67 13l32 -501h2l97 351h20l97 -351h2z" unicode="W"/>
<glyph glyph-name="X" d="M301 292l-148 -305l-60 28l174 348l-143 286l62 31l114 -249l114 249l62 -31l-143 -286l174 -348l-60 -28z" unicode="X"/>
<glyph glyph-name="Y" d="M300 341l144 339l62 -25l-173 -392v-263h-67v263l-172 392l62 25z" unicode="Y"/>
<glyph glyph-name="Z" d="M104 0l283 607h-254v60h355l-282 -607h290v-60h-392z" unicode="Z"/>
<glyph glyph-name="bracketleft" d="M178 676h270v-60h-203v-594h203v-60h-270v714z" unicode="["/>
<glyph glyph-name="backslash" d="M425 -27l-296 774h46l296 -774h-46z" unicode="\"/>
<glyph glyph-name="bracketright" d="M422 676v-714h-270v60h203v594h-203v60h270z" unicode="]"/>
<glyph glyph-name="asciicircum" d="M160 357h-50l164 323h52l161 -323h-50l-137 275z" unicode="^"/>
<glyph glyph-name="underscore" d="M600 -108h-600v36h600v-36z" unicode="_"/>
<glyph glyph-name="grave" d="M236 695l177 -101l-26 -44l-187 82z" unicode="`"/>
<glyph glyph-name="a" d="M374 202l-74 241l-74 -241h148zM393 142h-185l-49 -155l-66 24l164 510h86l164 -510l-66 -24z" unicode="a"/>
<glyph glyph-name="b" d="M334 0h-212v60h54v401h-54v60h164q97 1 143 -35t46 -104q0 -35 -15 -63t-44 -44q42 -13 66 -47t23 -79q-1 -71 -45 -110t-126 -39zM243 298h75q42 0 64 24t23 60q1 43 -25 61t-66 18h-71v-163zM243 60h78q52 0 83 18t31 66q0 42 -26 68t-72 26h-94v-178z" unicode="b"/>
<glyph glyph-name="c" d="M432 138l55 -38q-34 -53 -75 -81t-98 -28q-54 1 -93 23t-63 61t-34 86t-10 99q0 74 18 127t46 84t62 45t68 14q58 0 96 -28t69 -83l-61 -31q-20 36 -44 58t-59 21q-37 1 -62 -19t-39 -51t-18 -66q-6 -35 -6 -70t5 -70t19 -67t38 -50q26 -20 63 -20q43 0 69 21t54 63z" unicode="c"/>
<glyph glyph-name="d" d="M240 461v-401h71q67 0 97 45t30 155q0 114 -32 158t-97 43h-69zM119 461v60h174q115 -1 165 -57t50 -197q0 -67 -8 -115t-30 -81q-22 -35 -66 -53q-43 -18 -111 -18h-174v60h54v401h-54z" unicode="d"/>
<glyph glyph-name="e" d="M157 0v521h325v-60h-258v-156h213v-60h-213v-185h258v-60h-325z" unicode="e"/>
<glyph glyph-name="f" d="M176 0v521h328v-60h-261v-156h219v-60h-219v-245h-67z" unicode="f"/>
<glyph glyph-name="g" d="M476 278v-230q-32 -25 -76 -41t-84 -16q-56 0 -94 23t-60 62q-22 38 -33 86q-10 48 -10 99q0 49 10 97t33 87t61 62t91 23q51 0 95 -27t72 -73l-57 -37q-20 34 -49 54t-65 20t-60 -20q-24 -19 -38 -51q-13 -32 -18 -67t-5 -70t5 -69t18 -66q13 -30 38 -50t62 -20 q54 0 97 27v137h-125v60h192z" unicode="g"/>
<glyph glyph-name="h" d="M130 0v521h67v-216h206v216h67v-521h-67v245h-206v-245h-67z" unicode="h"/>
<glyph glyph-name="i" d="M193 0v60h73v401h-73v60h214v-60h-74v-401h74v-60h-214z" unicode="i"/>
<glyph glyph-name="j" d="M109 194h67q0 -78 22 -109t72 -31t76 28t25 76v363h67v-376q0 -29 -10 -56t-30 -49q-47 -49 -128 -49q-84 0 -122 49t-39 154z" unicode="j"/>
<glyph glyph-name="k" d="M229 521v-222h25l179 235l51 -40l-173 -219l203 -245l-51 -43l-211 257h-23v-244h-67v521h67z" unicode="k"/>
<glyph glyph-name="l" d="M170 0v521h67v-461h273v-60h-340z" unicode="l"/>
<glyph glyph-name="m" d="M300 147l-117 275h-2l-13 -422h-71l21 521h88l94 -226l94 226h88l21 -521h-71l-13 422h-2z" unicode="m"/>
<glyph glyph-name="n" d="M126 0v521h83l202 -439l2 2l-6 135v302h67v-521h-83l-202 439l-2 -2l6 -136v-301h-67z" unicode="n"/>
<glyph glyph-name="o" d="M300 467q-36 0 -59 -20q-23 -19 -35 -51t-16 -66t-5 -70q1 -34 5 -68t16 -66t35 -52t59 -20t59 20t35 52t16 66t5 68q-1 36 -5 70t-16 66t-35 51q-23 20 -59 20zM300 530q34 0 66 -14t59 -44q27 -31 43 -84t17 -128q-1 -30 -5 -70t-22 -86t-56 -80q-39 -33 -102 -33 q-34 -1 -66 13t-59 45t-43 83t-17 128q0 74 16 127q17 53 43 85t58 44q32 14 68 14z" unicode="o"/>
<glyph glyph-name="p" d="M229 284h92q101 0 101 90q0 49 -26 67t-75 20h-92v-177zM229 224v-224h-67v521h162q84 0 126 -40t42 -102q0 -40 -13 -69t-35 -48t-48 -28t-55 -10h-112z" unicode="p"/>
<glyph glyph-name="q" d="M352 68l-87 79l41 46l84 -77q13 32 19 68t6 76q-1 36 -5 70t-16 66t-35 51q-23 20 -59 20t-59 -20q-23 -19 -35 -51t-16 -66t-5 -70q1 -34 5 -68t16 -66t35 -52t59 -20q27 0 52 14zM441 70l59 -54l-42 -45l-58 53q-43 -33 -100 -33q-34 -1 -66 13t-59 45t-43 83t-17 128 q0 72 15 124t41 84t59 48q33 14 70 14q34 0 66 -14t59 -44q27 -31 43 -84t17 -128q0 -54 -10 -104t-34 -86z" unicode="q"/>
<glyph glyph-name="r" d="M149 0v521h177q70 0 113 -35t43 -107q0 -49 -30 -91t-76 -55l128 -211l-58 -35l-133 236h-97v-223h-67zM216 283h88q50 2 79 27t29 69q0 37 -22 59t-66 23h-108v-178z" unicode="r"/>
<glyph glyph-name="s" d="M131 146l60 19q11 -51 38 -81t76 -30q43 0 71 23t27 65q0 39 -23 58t-69 38l-13 5q-7 3 -20 8q-34 14 -54 24t-37 25t-27 38t-10 55q0 63 44 100t109 37q63 0 103 -34t56 -97l-64 -19q-10 41 -32 64t-64 23q-35 0 -60 -18t-25 -51t17 -49t53 -32l111 -49q72 -40 72 -122 q0 -73 -46 -114t-119 -41q-71 -1 -117 41t-57 114z" unicode="s"/>
<glyph glyph-name="t" d="M268 0v461h-144v60h352v-60h-141v-461h-67z" unicode="t"/>
<glyph glyph-name="u" d="M137 521h67v-355q0 -60 20 -86t71 -26q60 0 81 26t21 86v355h67v-387q0 -58 -42 -100t-122 -43q-80 1 -122 43t-41 104v383z" unicode="u"/>
<glyph glyph-name="v" d="M300 152l142 382l64 -24l-200 -523h-12l-200 523l64 24z" unicode="v"/>
<glyph glyph-name="w" d="M93 526l69 8l40 -366h2l87 256h18l87 -256h2l41 366l68 -8l-75 -539h-23l-109 321l-109 -321h-23z" unicode="w"/>
<glyph glyph-name="x" d="M300 217l-139 -230l-60 34l161 255l-147 223l61 35l124 -198l124 198l61 -35l-147 -223l161 -255l-60 -34z" unicode="x"/>
<glyph glyph-name="y" d="M300 266l139 268l63 -33l-169 -300v-201h-67v201l-168 300l63 33z" unicode="y"/>
<glyph glyph-name="z" d="M104 0l273 461h-244v60h355l-271 -461h279v-60h-392z" unicode="z"/>
<glyph glyph-name="braceleft" d="M323 199v-140q-1 -57 23 -79t92 -22h23v-25h-33q-100 1 -136 31t-36 109v132q0 51 -14 65t-52 24q-24 5 -39 10q13 5 39 12q38 10 52 24t14 64v133q0 75 34 107t115 32h56v-25h-24q-70 -2 -92 -23t-22 -77v-140q0 -42 -8 -66t-38 -41q30 -16 38 -40t8 -65z" unicode="{"/>
<glyph glyph-name="bar" d="M278 -288v1080h44v-1080h-44z" unicode="|"/>
<glyph glyph-name="braceright" d="M277 410v140q1 57 -23 79t-92 22h-23v25h33q100 0 136 -30t36 -110v-132q0 -50 14 -64t52 -25q24 -5 39 -10q-13 -4 -38 -11q-39 -12 -53 -26t-14 -63v-133q0 -76 -34 -108t-115 -31h-56v25h24q70 2 92 23t22 77v140q0 42 8 66t38 41q-30 15 -38 39t-8 66z" unicode="}"/>
<glyph glyph-name="asciitilde" d="M538 441l32 -23q-24 -46 -64 -80t-86 -34q-20 0 -49 10t-78 29q-41 17 -69 27t-44 9q-39 1 -63 -23t-51 -69q-3 -5 -5 -8l-31 23q30 53 64 87t81 34q30 0 63 -11t81 -32q39 -16 61 -24t39 -8q37 0 69 28t50 65z" unicode="~"/>
<glyph glyph-name="exclamdown" d="M326 460l20 -460h-102l18 460h64zM249 519v148h92v-148h-92z" unicode="¡"/>
<glyph glyph-name="cent" d="M273 136v401q-27 -10 -45 -32t-28 -50q-10 -27 -12 -57q-4 -30 -4 -61q0 -30 4 -60q4 -31 12 -59q10 -28 28 -50t45 -32zM340 68v-77h-67v79q-43 10 -75 36t-50 63t-26 79t-8 88q0 45 8 88t26 80q18 38 49 64t76 35v73h67v-72q42 -6 77 -36t56 -72l-61 -32q-14 27 -31 46 t-41 28v-405q28 7 50 29t42 52l55 -38q-28 -46 -64 -74t-83 -34z" unicode="¢"/>
<glyph glyph-name="sterling" d="M236 404h184v-60h-166l8 -28q17 -64 17 -95q0 -33 -11 -61t-33 -68l-5 -8q34 8 66 8q18 0 33 -5t36 -14l6 -3q31 -17 44 -17q17 0 29 8t30 23l5 5l40 -44q-29 -27 -51 -41t-52 -13q-18 0 -32 5t-33 14l-2 1q-20 9 -35 13t-34 5q-29 -1 -52 -9t-58 -27l-3 -2l-36 47 q46 75 62 112t16 66q-1 25 -7 59t-16 69h-106v60h89l-2 6q-21 69 -21 105q0 34 14 64t38 52q24 21 56 33q31 12 65 12q60 0 107 -30t69 -86l-61 -22q-18 38 -45 58t-66 20q-47 0 -77 -30t-30 -78q0 -22 4 -42t13 -50q3 -11 3 -12z" unicode="£"/>
<glyph glyph-name="currency" d="M300 169q40 1 75 15t61 40t40 61t15 75q-1 40 -15 75t-40 61t-61 42q-35 14 -75 14t-75 -14t-61 -42q-26 -26 -40 -61t-15 -75q1 -40 15 -75t40 -61t61 -40t75 -15zM120 506l-109 107l33 32l108 -107q64 52 148 52t148 -52l108 107l33 -32l-109 -107q50 -68 50 -146 t-50 -146l109 -107l-33 -32l-108 107q-64 -52 -148 -52t-148 52l-108 -107l-33 32l109 107q-50 68 -50 146t50 146z" unicode="¤"/>
<glyph glyph-name="yen" d="M358 327h122v-60h-147v-267h-67v267h-146v60h122l-148 328l62 25l144 -339l144 339l62 -25z" unicode="¥"/>
<glyph glyph-name="brokenbar" d="M278 72h44v-360h-44v360zM278 792h44v-360h-44v360z" unicode="¦"/>
<glyph glyph-name="section" d="M322 394l-71 36q-31 -29 -31 -67q0 -17 9 -29t31 -26l102 -54q15 10 24 28t9 37q0 25 -19 41t-51 32zM308 471l44 -22l6 -3q52 -26 80 -51t27 -69q-1 -30 -15 -56t-39 -45q27 -19 41 -43t14 -55q0 -62 -47 -99t-111 -37q-62 -1 -110 35t-64 96l67 23q13 -42 41 -68 t72 -26q34 1 58 19t24 51q0 29 -17 45t-51 33l-7 3l-48 25q-5 3 -15 8q-54 27 -81 53t-27 73q0 29 14 55t37 42q-42 36 -42 91q0 57 45 92t103 35q49 0 90 -28t60 -75l-59 -26q-14 33 -37 51t-56 18t-55 -18t-21 -51q1 -25 17 -39t47 -29q11 -6 15 -8z" unicode="§"/>
<glyph glyph-name="dieresis" d="M392 680q24 0 36 -20t12 -43t-12 -43t-36 -20t-36 20t-12 43q0 25 12 44t36 19zM208 680q24 0 36 -20t12 -43t-12 -43t-36 -20t-36 20t-12 43q0 25 12 44t36 19z" unicode="¨"/>
<glyph glyph-name="copyright" d="M399 272h50q-6 -58 -44 -96t-91 -38q-72 0 -119 58q-22 28 -34 64t-12 77q1 85 45 141t118 56q54 0 92 -34t45 -95h-50q-12 79 -86 79q-56 0 -85 -40t-29 -106q0 -64 30 -107t85 -43q76 0 85 84zM301 626q-45 0 -89 -20t-81 -58q-36 -38 -57 -92t-21 -122q-1 -58 19 -112 t55 -94q35 -41 80 -64t94 -23q41 1 85 21t80 59q37 39 59 93t22 120q1 57 -19 110t-54 94q-34 40 -79 64t-94 24zM301 676q61 0 115 -26t95 -74t63 -110t23 -132q-1 -70 -23 -132t-63 -110t-95 -74t-115 -27q-61 1 -115 27t-96 74q-41 48 -64 110t-23 132t23 132 q22 62 64 110t96 74t115 26z" unicode="©"/>
<glyph glyph-name="ordfeminine" d="M140 236v55h320v-55h-320zM333 483l-33 97l-33 -97h66zM351 428h-102l-32 -90l-63 20l111 309h70l111 -309l-63 -20z" unicode="ª"/>
<glyph glyph-name="guillemotleft" d="M517 570l47 -49l-205 -191l205 -192l-47 -50l-254 242zM293 570l47 -49l-205 -191l205 -192l-47 -50l-254 242z" unicode="«"/>
<glyph glyph-name="logicalnot" d="M522 173v232h-488v44h532v-276h-44z" unicode="¬"/>
<glyph glyph-name="minus" d="M566 382v-44h-532v44h532z" unicode="­"/>
<glyph glyph-name="minus" d="M566 382v-44h-532v44h532z" unicode="−"/>
<glyph glyph-name="registered" d="M240 472v-105h91q34 1 53 13t19 43t-19 40t-58 9h-86zM349 317l101 -176h-59l-95 176h-56v-176h-50v381h145q118 0 118 -101q0 -52 -28 -77t-76 -27zM301 41q47 -1 92 21t81 62t56 92q20 54 20 116t-22 116t-58 92q-36 40 -80 61t-89 21t-90 -21t-81 -60t-58 -93 t-22 -116q0 -58 20 -111t54 -93q35 -40 81 -64q46 -23 96 -23zM301 -9q-63 1 -117 27t-96 72t-64 110q-24 62 -24 132t24 132t64 108q41 46 96 74q55 26 117 26q61 0 115 -26t96 -74t65 -109q23 -62 23 -131q0 -70 -23 -132t-64 -109t-96 -73t-116 -27z" unicode="®"/>
<glyph glyph-name="macron" d="M444 586h-287v60h287v-60z" unicode="¯"/>
<glyph glyph-name="degree" d="M149 549q0 -31 12 -59q13 -28 33 -48t48 -32t58 -12t58 12t49 32t33 48t11 59q1 31 -11 59t-33 48t-49 32t-58 12t-58 -12t-48 -32t-33 -48q-12 -28 -12 -59zM107 549q0 39 15 75q16 36 42 62t62 41t74 15t74 -15t62 -41t42 -62q15 -36 15 -75t-15 -74q-16 -35 -42 -62 t-62 -42t-74 -15t-74 15t-62 41t-42 62q-15 36 -15 75z" unicode="°"/>
<glyph glyph-name="plusminus" d="M566 91v-44h-532v44h532zM566 429v-44h-244v-244h-44v244h-244v44h244v244h44v-244h244z" unicode="±"/>
<glyph glyph-name="twosuperior" d="M189 332v42l132 152l2 2q15 16 22 28t7 27q0 19 -13 31t-33 12q-30 0 -44 -18t-17 -47l-57 7q6 52 36 80t81 28q45 0 76 -24t31 -67q0 -25 -11 -44t-34 -46l-100 -113h144v-50h-222z" unicode="²"/>
<glyph glyph-name="threesuperior" d="M408 676v-42l-86 -79q38 -4 65 -28t27 -61q0 -18 -8 -40t-30 -44q-21 -22 -60 -36t-97 -15q-4 0 -13 1h-14v50q78 0 120 20t42 63q0 25 -21 35t-49 11q-17 0 -50 -5q-1 -1 -3 -1v39l92 82h-136v50h221z" unicode="³"/>
<glyph glyph-name="acute" d="M377 695l36 -63l-187 -82l-26 44z" unicode="´"/>
<glyph glyph-name="mu" d="M402 0v44q-18 -24 -44 -38t-56 -15q-65 0 -103 49v-251h-67v732h67v-344q1 -35 11 -59t26 -39q16 -13 32 -19t29 -6q27 0 47 13t34 35q12 22 18 46q6 25 6 50v323h67v-521h-67z" unicode="µ"/>
<glyph glyph-name="paragraph" d="M278 -67v356h-9q-5 -1 -10 -1q-41 0 -78 14t-65 40t-44 60q-16 36 -15 79q-1 29 7 61t32 63t74 51t127 20h246v-60h-46v-683h-67v683h-85v-683h-67z" unicode="¶"/>
<glyph glyph-name="cedilla" d="M346 13l-18 -55q34 -2 57 -20t23 -51t-29 -55t-64 -22q-23 0 -47 8t-55 21l20 51q42 -20 74 -20q11 0 21 4t10 16q0 18 -20 24t-53 7q-8 1 -12 1l33 91h60z" unicode="¸"/>
<glyph glyph-name="onesuperior" d="M281 382v227l-62 -21l-18 45l140 47v-298h58v-50h-192v50h74z" unicode="¹"/>
<glyph glyph-name="ordmasculine" d="M300 621q-19 -1 -32 -11t-19 -26q-7 -16 -9 -36q-2 -18 -2 -37t2 -37t9 -34q6 -16 19 -28q13 -10 32 -10t32 10q14 10 20 28q6 16 8 34t3 37q-1 19 -3 37t-8 36q-6 16 -20 26q-13 10 -32 11zM300 676q34 0 59 -14t41 -36q16 -24 22 -53q8 -29 8 -62q0 -31 -8 -61t-22 -53 q-16 -23 -41 -37t-59 -13q-34 -1 -59 13t-41 37t-22 53q-7 30 -7 61t7 61q6 30 22 54t41 36q25 14 59 14zM140 236v55h320v-55h-320z" unicode="º"/>
<glyph glyph-name="guillemotright" d="M307 570l254 -240l-254 -242l-47 50l205 192l-205 191zM83 570l254 -240l-254 -242l-47 50l205 192l-205 191z" unicode="»"/>
<glyph glyph-name="onequarter" d="M460 680l53 -29l-377 -664l-53 26zM116 382v227l-62 -21l-18 45l140 47v-298h58v-50h-192v50h74zM476 78h-143l58 267l57 -10l-46 -207h74v162h60v-162h28v-50h-28v-78h-60v78z" unicode="¼"/>
<glyph glyph-name="onehalf" d="M334 0v42l132 152l2 2q15 16 22 28t7 27q0 19 -13 31t-33 12q-29 0 -43 -18t-18 -47l-57 7q6 52 36 80t81 28q45 0 76 -24t31 -67q0 -25 -11 -44t-34 -46l-100 -113h144v-50h-222zM464 680l53 -29l-377 -664l-53 26zM123 382v227l-62 -21l-18 45l140 47v-298h58v-50h-192 v50h74z" unicode="½"/>
<glyph glyph-name="threequarters" d="M257 676v-42l-86 -79q38 -4 65 -28t27 -61q-1 -18 -9 -40t-29 -44t-60 -36t-97 -14q-4 0 -13 1h-14v50q78 -1 120 19t42 63q0 25 -21 35t-49 11q-17 0 -50 -5q-1 -1 -3 -1v39l92 82h-136v50h221zM461 680l53 -29l-377 -664l-53 26zM477 78h-143l58 267l57 -10l-46 -207 h74v162h60v-162h28v-50h-28v-78h-60v78z" unicode="¾"/>
<glyph glyph-name="questiondown" d="M257 519v148h92v-148h-92zM269 447h69v-17q-1 -28 -3 -46t-8 -32q-5 -14 -17 -26q-12 -13 -35 -32l-10 -9q-37 -33 -57 -59t-20 -64q0 -48 27 -78t74 -30q55 0 86 40t41 98l66 -17q-17 -87 -62 -135t-129 -49q-77 0 -125 46t-48 123q0 54 25 92t74 79q1 1 2 1 q33 29 41 45t9 56v14z" unicode="¿"/>
<glyph glyph-name="Agrave" d="M375 266l-74 312h-2l-74 -312h150zM391 206h-182l-52 -219l-66 18l169 662h80l169 -662l-66 -18zM236 841l177 -101l-26 -44l-187 82z" unicode="À"/>
<glyph glyph-name="Aacute" d="M375 266l-74 312h-2l-74 -312h150zM391 206h-182l-52 -219l-66 18l169 662h80l169 -662l-66 -18zM377 841l36 -63l-187 -82l-26 44z" unicode="Á"/>
<glyph glyph-name="Acircumflex" d="M375 266l-74 312h-2l-74 -312h150zM391 206h-182l-52 -219l-66 18l169 662h80l169 -662l-66 -18zM300 759l-127 -62l-24 36l151 102l151 -102l-23 -36z" unicode="Â"/>
<glyph glyph-name="Atilde" d="M375 266l-74 312h-2l-74 -312h150zM391 206h-182l-52 -219l-66 18l169 662h80l169 -662l-66 -18zM403 826l51 -16q-7 -24 -13 -40t-16 -32t-25 -24q-15 -9 -36 -9q-21 -1 -36 7t-36 24q-14 10 -26 18t-23 8q-17 0 -26 -14t-18 -37q-2 -7 -4 -11l-49 19q8 24 16 40t17 29 q26 34 64 34q17 0 31 -7t33 -21l2 -2l3 -3q14 -11 26 -18t23 -7q17 0 25 16t15 38q2 7 2 8z" unicode="Ã"/>
<glyph glyph-name="Adieresis" d="M375 266l-74 312h-2l-74 -312h150zM391 206h-182l-52 -219l-66 18l169 662h80l169 -662l-66 -18zM392 826q24 0 36 -20t12 -43t-12 -43t-36 -20t-36 20t-12 43q0 25 12 44t36 19zM208 826q24 0 36 -20t12 -43t-12 -43t-36 -20t-36 20t-12 43q0 25 12 44t36 19z" unicode="Ä"/>
<glyph glyph-name="Aring" d="M375 266l-74 312h-2l-74 -312h150zM391 206h-182l-52 -219l-66 18l168 659q18 -10 41 -10q22 0 41 10l168 -659l-66 -18zM300 787q19 1 33 -13t14 -33t-14 -33t-33 -14t-33 14t-14 33t14 33t33 13zM300 827q-36 1 -62 -25t-25 -61q-1 -35 25 -61q10 -10 21 -16l1 3h80 l1 -3q11 6 21 16q26 26 25 61q1 35 -25 61t-62 25z" unicode="Å"/>
<glyph glyph-name="AE" d="M284 0v206h-120l-53 -219l-68 18l168 662h297v-60h-157v-220h145v-60h-145v-267h157v-60h-224zM284 266v341h-27l-80 -341h107z" unicode="Æ"/>
<glyph glyph-name="Ccedilla" d="M432 138q-22 -36 -52 -60t-66 -24q-43 0 -70 29q-28 29 -40 73t-16 89t-4 88q0 44 4 89t16 89t40 73q27 29 70 29q36 0 62 -22t44 -57l57 34q-29 52 -69 80t-94 28q-62 0 -102 -32t-61 -85q-21 -52 -29 -109t-8 -117q0 -59 8 -116t29 -109t61 -84q28 -23 67 -30 q3 10 7 19h60q-3 -10 -7 -20q39 5 73 27q44 30 75 80zM279 -6q17 -3 35 -3q13 0 25 2l-11 -35q34 -2 57 -20t23 -51t-29 -55t-64 -22q-23 0 -47 8t-55 21l20 51q42 -20 74 -20q11 0 21 4t10 16q0 18 -20 24t-53 7q-8 1 -12 1z" unicode="Ç"/>
<glyph glyph-name="Egrave" d="M157 0v667h325v-60h-258v-220h213v-60h-213v-267h258v-60h-325zM236 841l177 -101l-26 -44l-187 82z" unicode="È"/>
<glyph glyph-name="Eacute" d="M157 0v667h325v-60h-258v-220h213v-60h-213v-267h258v-60h-325zM377 841l36 -63l-187 -82l-26 44z" unicode="É"/>
<glyph glyph-name="Ecircumflex" d="M157 0v667h325v-60h-258v-220h213v-60h-213v-267h258v-60h-325zM300 759l-127 -62l-24 36l151 102l151 -102l-23 -36z" unicode="Ê"/>
<glyph glyph-name="Edieresis" d="M157 0v667h325v-60h-258v-220h213v-60h-213v-267h258v-60h-325zM392 826q24 0 36 -20t12 -43t-12 -43t-36 -20t-36 20t-12 43q0 25 12 44t36 19zM208 826q24 0 36 -20t12 -43t-12 -43t-36 -20t-36 20t-12 43q0 25 12 44t36 19z" unicode="Ë"/>
<glyph glyph-name="Igrave" d="M266 60v547h-90v60h248v-60h-91v-547h91v-60h-248v60h90zM236 841l177 -101l-26 -44l-187 82z" unicode="Ì"/>
<glyph glyph-name="Iacute" d="M266 60v547h-90v60h248v-60h-91v-547h91v-60h-248v60h90zM377 841l36 -63l-187 -82l-26 44z" unicode="Í"/>
<glyph glyph-name="Icircumflex" d="M266 60v547h-90v60h248v-60h-91v-547h91v-60h-248v60h90zM300 759l-127 -62l-24 36l151 102l151 -102l-23 -36z" unicode="Î"/>
<glyph glyph-name="Idieresis" d="M266 60v547h-90v60h248v-60h-91v-547h91v-60h-248v60h90zM392 826q24 0 36 -20t12 -43t-12 -43t-36 -20t-36 20t-12 43q0 25 12 44t36 19zM208 826q24 0 36 -20t12 -43t-12 -43t-36 -20t-36 20t-12 43q0 25 12 44t36 19z" unicode="Ï"/>
<glyph glyph-name="Eth" d="M240 607v-244h79v-60h-79v-243h55q36 0 60 8t43 36q20 26 30 82t10 147t-11 147t-29 83t-39 35t-48 9h-71zM173 607h-54v60h176q55 -1 93 -15t65 -50t41 -102t14 -167q0 -71 -6 -125t-25 -101q-20 -47 -64 -77t-116 -30h-178v60h54v243h-54v60h54v244z" unicode="Ð"/>
<glyph glyph-name="Ntilde" d="M126 0v667h84l198 -561l2 2l-3 149v410h67v-667h-84l-198 562l-2 -2l3 -151v-409h-67zM403 826l51 -16q-7 -24 -13 -40t-16 -32t-25 -24q-15 -9 -36 -9q-21 -1 -36 7t-36 24q-14 10 -26 18t-23 8q-17 0 -26 -14t-18 -37q-2 -7 -4 -11l-49 19q8 24 16 40t17 29 q26 34 64 34q17 0 31 -7t33 -21l2 -2l3 -3q14 -11 26 -18t23 -7q17 0 25 16t15 38q2 7 2 8z" unicode="Ñ"/>
<glyph glyph-name="Ograve" d="M300 613q-40 1 -64 -25t-34 -67t-14 -85q-3 -44 -3 -102q0 -144 24 -212t91 -68q41 0 65 25q25 25 35 65t12 84t3 106q-1 67 -3 112q-2 46 -13 84t-35 60t-64 23zM300 676q64 0 102 -36t56 -90t22 -106t5 -110q-1 -56 -5 -108t-22 -108q-18 -54 -56 -90t-102 -37 q-63 0 -102 35q-38 35 -56 89t-22 107t-5 112q0 58 5 112t23 106q19 54 57 89t100 35zM236 841l177 -101l-26 -44l-187 82z" unicode="Ò"/>
<glyph glyph-name="Oacute" d="M300 613q-40 1 -64 -25t-34 -67t-14 -85q-3 -44 -3 -102q0 -144 24 -212t91 -68q41 0 65 25q25 25 35 65t12 84t3 106q-1 67 -3 112q-2 46 -13 84t-35 60t-64 23zM300 676q64 0 102 -36t56 -90t22 -106t5 -110q-1 -56 -5 -108t-22 -108q-18 -54 -56 -90t-102 -37 q-63 0 -102 35q-38 35 -56 89t-22 107t-5 112q0 58 5 112t23 106q19 54 57 89t100 35zM377 841l36 -63l-187 -82l-26 44z" unicode="Ó"/>
<glyph glyph-name="Ocircumflex" d="M300 613q-40 1 -64 -25t-34 -67t-14 -85q-3 -44 -3 -102q0 -144 24 -212t91 -68q41 0 65 25q25 25 35 65t12 84t3 106q-1 67 -3 112q-2 46 -13 84t-35 60t-64 23zM300 676q64 0 102 -36t56 -90t22 -106t5 -110q-1 -56 -5 -108t-22 -108q-18 -54 -56 -90t-102 -37 q-63 0 -102 35q-38 35 -56 89t-22 107t-5 112q0 58 5 112t23 106q19 54 57 89t100 35zM300 759l-127 -62l-24 36l151 102l151 -102l-23 -36z" unicode="Ô"/>
<glyph glyph-name="Otilde" d="M300 613q-40 1 -64 -25t-34 -67t-14 -85q-3 -44 -3 -102q0 -144 24 -212t91 -68q41 0 65 25q25 25 35 65t12 84t3 106q-1 67 -3 112q-2 46 -13 84t-35 60t-64 23zM300 676q64 0 102 -36t56 -90t22 -106t5 -110q-1 -56 -5 -108t-22 -108q-18 -54 -56 -90t-102 -37 q-63 0 -102 35q-38 35 -56 89t-22 107t-5 112q0 58 5 112t23 106q19 54 57 89t100 35zM403 826l51 -16q-7 -24 -13 -40t-16 -32t-25 -24q-15 -9 -36 -9q-21 -1 -36 7t-36 24q-14 10 -26 18t-23 8q-17 0 -26 -14t-18 -37q-2 -7 -4 -11l-49 19q8 24 16 40t17 29q26 34 64 34 q17 0 31 -7t33 -21l2 -2l3 -3q14 -11 26 -18t23 -7q17 0 25 16t15 38q2 7 2 8z" unicode="Õ"/>
<glyph glyph-name="Odieresis" d="M300 613q-40 1 -64 -25t-34 -67t-14 -85q-3 -44 -3 -102q0 -144 24 -212t91 -68q41 0 65 25q25 25 35 65t12 84t3 106q-1 67 -3 112q-2 46 -13 84t-35 60t-64 23zM300 676q64 0 102 -36t56 -90t22 -106t5 -110q-1 -56 -5 -108t-22 -108q-18 -54 -56 -90t-102 -37 q-63 0 -102 35q-38 35 -56 89t-22 107t-5 112q0 58 5 112t23 106q19 54 57 89t100 35zM392 826q24 0 36 -20t12 -43t-12 -43t-36 -20t-36 20t-12 43q0 25 12 44t36 19zM208 826q24 0 36 -20t12 -43t-12 -43t-36 -20t-36 20t-12 43q0 25 12 44t36 19z" unicode="Ö"/>
<glyph glyph-name="multiply" d="M566 126l-31 -32l-235 235l-235 -235l-31 32l235 234l-235 235l31 31l235 -235l235 235l31 -31l-235 -235z" unicode="×"/>
<glyph glyph-name="Oslash" d="M178 56l-33 -59l-51 26l52 97q-14 48 -19 100t-5 114t4 114t22 105t56 88t103 35q33 0 63 -13t53 -37l32 58l52 -27l-48 -88q21 -50 27 -107t6 -128q0 -60 -5 -114t-23 -106q-18 -54 -56 -88t-101 -35q-37 0 -72 18t-57 47zM412 487l-197 -363v-2q14 -32 36 -50t56 -18 q23 0 41 8t36 32q18 26 28 82t10 146t-8 163v2h-2zM197 212l193 353q-28 48 -83 48q-25 1 -45 -9t-35 -37t-25 -81t-10 -140q0 -55 1 -82t4 -52z" unicode="Ø"/>
<glyph glyph-name="Ugrave" d="M137 667h67v-485q0 -28 4 -50t14 -40t29 -28t49 -10t50 10t29 28q10 18 14 40t4 50v485h67v-505q0 -78 -45 -124t-119 -47q-75 1 -119 47t-44 121v508zM236 841l177 -101l-26 -44l-187 82z" unicode="Ù"/>
<glyph glyph-name="Uacute" d="M137 667h67v-485q0 -28 4 -50t14 -40t29 -28t49 -10t50 10t29 28q10 18 14 40t4 50v485h67v-505q0 -78 -45 -124t-119 -47q-75 1 -119 47t-44 121v508zM377 841l36 -63l-187 -82l-26 44z" unicode="Ú"/>
<glyph glyph-name="Ucircumflex" d="M137 667h67v-485q0 -28 4 -50t14 -40t29 -28t49 -10t50 10t29 28q10 18 14 40t4 50v485h67v-505q0 -78 -45 -124t-119 -47q-75 1 -119 47t-44 121v508zM300 759l-127 -62l-24 36l151 102l151 -102l-23 -36z" unicode="Û"/>
<glyph glyph-name="Udieresis" d="M137 667h67v-485q0 -28 4 -50t14 -40t29 -28t49 -10t50 10t29 28q10 18 14 40t4 50v485h67v-505q0 -78 -45 -124t-119 -47q-75 1 -119 47t-44 121v508zM392 826q24 0 36 -20t12 -43t-12 -43t-36 -20t-36 20t-12 43q0 25 12 44t36 19zM208 826q24 0 36 -20t12 -43t-12 -43 t-36 -20t-36 20t-12 43q0 25 12 44t36 19z" unicode="Ü"/>
<glyph glyph-name="Yacute" d="M300 341l144 339l62 -25l-173 -392v-263h-67v263l-172 392l62 25zM377 841l36 -63l-187 -82l-26 44z" unicode="Ý"/>
<glyph glyph-name="Thorn" d="M229 459v-250h94q46 0 72 35t26 98q1 60 -29 88t-86 29h-77zM229 149v-149h-67v667h67v-148h78q89 0 137 -46t47 -131q1 -90 -45 -142t-117 -51h-100z" unicode="Þ"/>
<glyph glyph-name="germandbls" d="M277 248v60q31 4 48 28t17 59t-15 53t-49 19q-42 0 -56 -29q-6 -12 -8 -28t-1 -38v-372h-67v419q0 15 8 35t26 37q17 17 44 28t61 11q59 0 93 -36t34 -92q0 -35 -14 -65t-41 -46q45 -11 71 -51t26 -89q0 -39 -12 -69t-32 -47q-20 -19 -44 -27t-47 -8h-61v60h46 q80 0 80 88q0 100 -107 100z" unicode="ß"/>
<glyph glyph-name="agrave" d="M374 202l-74 241l-74 -241h148zM393 142h-185l-49 -155l-66 24l164 510h86l164 -510l-66 -24zM236 695l177 -101l-26 -44l-187 82z" unicode="à"/>
<glyph glyph-name="aacute" d="M374 202l-74 241l-74 -241h148zM393 142h-185l-49 -155l-66 24l164 510h86l164 -510l-66 -24zM377 695l36 -63l-187 -82l-26 44z" unicode="á"/>
<glyph glyph-name="acircumflex" d="M374 202l-74 241l-74 -241h148zM393 142h-185l-49 -155l-66 24l164 510h86l164 -510l-66 -24zM300 613l-127 -62l-24 36l151 102l151 -102l-23 -36z" unicode="â"/>
<glyph glyph-name="atilde" d="M374 202l-74 241l-74 -241h148zM393 142h-185l-49 -155l-66 24l164 510h86l164 -510l-66 -24zM403 680l51 -16q-7 -24 -13 -40t-16 -32t-25 -24q-15 -9 -36 -9q-21 -1 -36 7t-36 24q-14 10 -26 18t-23 8q-17 0 -26 -14t-18 -37q-2 -7 -4 -11l-49 19q8 24 16 40t17 29 q26 34 64 34q17 0 31 -7t33 -21l2 -2l3 -3q14 -11 26 -18t23 -7q17 0 25 16t15 38q2 7 2 8z" unicode="ã"/>
<glyph glyph-name="adieresis" d="M374 202l-74 241l-74 -241h148zM393 142h-185l-49 -155l-66 24l164 510h86l164 -510l-66 -24zM392 680q24 0 36 -20t12 -43t-12 -43t-36 -20t-36 20t-12 43q0 25 12 44t36 19zM208 680q24 0 36 -20t12 -43t-12 -43t-36 -20t-36 20t-12 43q0 25 12 44t36 19z" unicode="ä"/>
<glyph glyph-name="aring" d="M374 202l-74 241l-74 -241h148zM393 142h-185l-49 -155l-66 24l163 508q19 -11 44 -11q24 0 44 11l163 -508l-66 -24zM300 641q19 1 33 -13t14 -33t-14 -33t-33 -14t-33 14t-14 33t14 33t33 13zM300 681q-36 1 -62 -25t-25 -61q-1 -35 25 -61q8 -8 18 -15l1 2h86l1 -2 q10 7 18 15q26 26 25 61q1 35 -25 61t-62 25z" unicode="å"/>
<glyph glyph-name="ae" d="M291 0v142h-137l-48 -155l-66 24l164 510h332v-60h-178v-156h145v-60h-145v-185h178v-60h-245zM291 202v259h-42l-76 -259h118z" unicode="æ"/>
<glyph glyph-name="ccedilla" d="M432 138q-28 -42 -54 -63t-69 -21q-37 0 -63 20t-38 50q-14 32 -19 67t-5 70t6 70t18 66q14 31 39 51t62 19q35 1 59 -21t44 -58l61 31q-31 55 -69 83t-96 28q-34 0 -68 -14t-62 -45t-46 -84t-18 -127q0 -52 10 -99t34 -86t63 -61q26 -15 58 -20l7 19h60q-3 -10 -7 -21 q41 5 73 27q41 28 75 81zM279 -6q17 -3 35 -3q13 0 25 1l-11 -34q34 -2 57 -20t23 -51t-29 -55t-64 -22q-23 0 -47 8t-55 21l20 51q42 -20 74 -20q11 0 21 4t10 16q0 18 -20 24t-53 7q-8 1 -12 1z" unicode="ç"/>
<glyph glyph-name="egrave" d="M157 0v521h325v-60h-258v-156h213v-60h-213v-185h258v-60h-325zM236 695l177 -101l-26 -44l-187 82z" unicode="è"/>
<glyph glyph-name="eacute" d="M157 0v521h325v-60h-258v-156h213v-60h-213v-185h258v-60h-325zM377 695l36 -63l-187 -82l-26 44z" unicode="é"/>
<glyph glyph-name="ecircumflex" d="M157 0v521h325v-60h-258v-156h213v-60h-213v-185h258v-60h-325zM300 613l-127 -62l-24 36l151 102l151 -102l-23 -36z" unicode="ê"/>
<glyph glyph-name="edieresis" d="M157 0v521h325v-60h-258v-156h213v-60h-213v-185h258v-60h-325zM392 680q24 0 36 -20t12 -43t-12 -43t-36 -20t-36 20t-12 43q0 25 12 44t36 19zM208 680q24 0 36 -20t12 -43t-12 -43t-36 -20t-36 20t-12 43q0 25 12 44t36 19z" unicode="ë"/>
<glyph glyph-name="igrave" d="M193 0v60h73v401h-73v60h214v-60h-74v-401h74v-60h-214zM236 695l177 -101l-26 -44l-187 82z" unicode="ì"/>
<glyph glyph-name="iacute" d="M193 0v60h73v401h-73v60h214v-60h-74v-401h74v-60h-214zM377 695l36 -63l-187 -82l-26 44z" unicode="í"/>
<glyph glyph-name="icircumflex" d="M193 0v60h73v401h-73v60h214v-60h-74v-401h74v-60h-214zM300 613l-127 -62l-24 36l151 102l151 -102l-23 -36z" unicode="î"/>
<glyph glyph-name="idieresis" d="M193 0v60h73v401h-73v60h214v-60h-74v-401h74v-60h-214zM392 680q24 0 36 -20t12 -43t-12 -43t-36 -20t-36 20t-12 43q0 25 12 44t36 19zM208 680q24 0 36 -20t12 -43t-12 -43t-36 -20t-36 20t-12 43q0 25 12 44t36 19z" unicode="ï"/>
<glyph glyph-name="eth" d="M240 290h79v-60h-79v-170h71q67 0 97 45t30 155q0 114 -32 158t-97 43h-69v-171zM173 290v171h-54v60h174q115 -1 165 -57t50 -197q0 -67 -8 -115t-30 -81q-22 -35 -66 -53q-43 -18 -111 -18h-174v60h54v170h-54v60h54z" unicode="ð"/>
<glyph glyph-name="ntilde" d="M126 0v521h83l202 -439l2 2l-6 135v302h67v-521h-83l-202 439l-2 -2l6 -136v-301h-67zM403 680l51 -16q-7 -24 -13 -40t-16 -32t-25 -24q-15 -9 -36 -9q-21 -1 -36 7t-36 24q-14 10 -26 18t-23 8q-17 0 -26 -14t-18 -37q-2 -7 -4 -11l-49 19q8 24 16 40t17 29 q26 34 64 34q17 0 31 -7t33 -21l2 -2l3 -3q14 -11 26 -18t23 -7q17 0 25 16t15 38q2 7 2 8z" unicode="ñ"/>
<glyph glyph-name="ograve" d="M300 467q-36 0 -59 -20q-23 -19 -35 -51t-16 -66t-5 -70q1 -34 5 -68t16 -66t35 -52t59 -20t59 20t35 52t16 66t5 68q-1 36 -5 70t-16 66t-35 51q-23 20 -59 20zM300 530q34 0 66 -14t59 -44q27 -31 43 -84t17 -128q-1 -30 -5 -70t-22 -86t-56 -80q-39 -33 -102 -33 q-34 -1 -66 13t-59 45t-43 83t-17 128q0 74 16 127q17 53 43 85t58 44q32 14 68 14zM236 695l177 -101l-26 -44l-187 82z" unicode="ò"/>
<glyph glyph-name="oacute" d="M300 467q-36 0 -59 -20q-23 -19 -35 -51t-16 -66t-5 -70q1 -34 5 -68t16 -66t35 -52t59 -20t59 20t35 52t16 66t5 68q-1 36 -5 70t-16 66t-35 51q-23 20 -59 20zM300 530q34 0 66 -14t59 -44q27 -31 43 -84t17 -128q-1 -30 -5 -70t-22 -86t-56 -80q-39 -33 -102 -33 q-34 -1 -66 13t-59 45t-43 83t-17 128q0 74 16 127q17 53 43 85t58 44q32 14 68 14zM377 695l36 -63l-187 -82l-26 44z" unicode="ó"/>
<glyph glyph-name="ocircumflex" d="M300 467q-36 0 -59 -20q-23 -19 -35 -51t-16 -66t-5 -70q1 -34 5 -68t16 -66t35 -52t59 -20t59 20t35 52t16 66t5 68q-1 36 -5 70t-16 66t-35 51q-23 20 -59 20zM300 530q34 0 66 -14t59 -44q27 -31 43 -84t17 -128q-1 -30 -5 -70t-22 -86t-56 -80q-39 -33 -102 -33 q-34 -1 -66 13t-59 45t-43 83t-17 128q0 74 16 127q17 53 43 85t58 44q32 14 68 14zM300 613l-127 -62l-24 36l151 102l151 -102l-23 -36z" unicode="ô"/>
<glyph glyph-name="otilde" d="M300 467q-36 0 -59 -20q-23 -19 -35 -51t-16 -66t-5 -70q1 -34 5 -68t16 -66t35 -52t59 -20t59 20t35 52t16 66t5 68q-1 36 -5 70t-16 66t-35 51q-23 20 -59 20zM300 530q34 0 66 -14t59 -44q27 -31 43 -84t17 -128q-1 -30 -5 -70t-22 -86t-56 -80q-39 -33 -102 -33 q-34 -1 -66 13t-59 45t-43 83t-17 128q0 74 16 127q17 53 43 85t58 44q32 14 68 14zM403 680l51 -16q-7 -24 -13 -40t-16 -32t-25 -24q-15 -9 -36 -9q-21 -1 -36 7t-36 24q-14 10 -26 18t-23 8q-17 0 -26 -14t-18 -37q-2 -7 -4 -11l-49 19q8 24 16 40t17 29q26 34 64 34 q17 0 31 -7t33 -21l2 -2l3 -3q14 -11 26 -18t23 -7q17 0 25 16t15 38q2 7 2 8z" unicode="õ"/>
<glyph glyph-name="odieresis" d="M300 467q-36 0 -59 -20q-23 -19 -35 -51t-16 -66t-5 -70q1 -34 5 -68t16 -66t35 -52t59 -20t59 20t35 52t16 66t5 68q-1 36 -5 70t-16 66t-35 51q-23 20 -59 20zM300 530q34 0 66 -14t59 -44q27 -31 43 -84t17 -128q-1 -30 -5 -70t-22 -86t-56 -80q-39 -33 -102 -33 q-34 -1 -66 13t-59 45t-43 83t-17 128q0 74 16 127q17 53 43 85t58 44q32 14 68 14zM392 680q24 0 36 -20t12 -43t-12 -43t-36 -20t-36 20t-12 43q0 25 12 44t36 19zM208 680q24 0 36 -20t12 -43t-12 -43t-36 -20t-36 20t-12 43q0 25 12 44t36 19z" unicode="ö"/>
<glyph glyph-name="divide" d="M343 515q-1 -19 -13 -31t-30 -12t-30 12t-13 31q1 19 13 31t30 12t30 -12t13 -31zM343 205q-1 -19 -13 -31t-30 -12t-30 12t-13 31q1 19 13 31t30 12t30 -12t13 -31zM566 382v-44h-532v44h532z" unicode="÷"/>
<glyph glyph-name="oslash" d="M396 500l21 38l50 -28l-29 -55q26 -39 36 -89t11 -106q0 -71 -15 -123t-41 -84t-59 -47t-70 -15q-57 0 -98 32l-21 -39l-51 27l31 57q-25 37 -35 87t-11 105q0 72 15 124t41 84t59 48q33 14 70 14q56 0 96 -30zM399 383l-166 -303q29 -26 67 -26q36 0 59 20t35 52t16 66 t5 68q0 71 -16 123zM200 141l165 301q-25 25 -65 25q-36 0 -59 -20q-23 -19 -35 -51t-16 -66t-5 -70q0 -67 15 -119z" unicode="ø"/>
<glyph glyph-name="ugrave" d="M137 521h67v-355q0 -60 20 -86t71 -26q60 0 81 26t21 86v355h67v-387q0 -58 -42 -100t-122 -43q-80 1 -122 43t-41 104v383zM236 695l177 -101l-26 -44l-187 82z" unicode="ù"/>
<glyph glyph-name="uacute" d="M137 521h67v-355q0 -60 20 -86t71 -26q60 0 81 26t21 86v355h67v-387q0 -58 -42 -100t-122 -43q-80 1 -122 43t-41 104v383zM377 695l36 -63l-187 -82l-26 44z" unicode="ú"/>
<glyph glyph-name="ucircumflex" d="M137 521h67v-355q0 -60 20 -86t71 -26q60 0 81 26t21 86v355h67v-387q0 -58 -42 -100t-122 -43q-80 1 -122 43t-41 104v383zM300 613l-127 -62l-24 36l151 102l151 -102l-23 -36z" unicode="û"/>
<glyph glyph-name="udieresis" d="M137 521h67v-355q0 -60 20 -86t71 -26q60 0 81 26t21 86v355h67v-387q0 -58 -42 -100t-122 -43q-80 1 -122 43t-41 104v383zM392 680q24 0 36 -20t12 -43t-12 -43t-36 -20t-36 20t-12 43q0 25 12 44t36 19zM208 680q24 0 36 -20t12 -43t-12 -43t-36 -20t-36 20t-12 43 q0 25 12 44t36 19z" unicode="ü"/>
<glyph glyph-name="yacute" d="M300 266l139 268l63 -33l-169 -300v-201h-67v201l-168 300l63 33zM377 695l36 -63l-187 -82l-26 44z" unicode="ý"/>
<glyph glyph-name="thorn" d="M229 172h92q101 0 101 90q0 49 -26 67t-75 20h-92v-177zM229 112v-112h-67v521h67v-112h95q84 0 126 -40t42 -102q0 -40 -13 -69t-35 -48t-48 -28t-55 -10h-112z" unicode="þ"/>
<glyph glyph-name="OE" d="M310 73v524q-18 16 -55 16q-27 0 -47 -10q-20 -11 -36 -39t-24 -84q-9 -56 -9 -145q0 -65 4 -112q3 -47 15 -85t36 -62q24 -22 61 -22q31 0 55 19zM315 667h216v-60h-154v-220h142v-60h-142v-267h154v-60h-220q-24 -9 -51 -9q-64 -1 -104 35t-58 90t-24 108q-5 54 -5 111 q1 53 5 105t22 107t56 92q39 37 103 37q41 0 60 -9z" unicode="Œ"/>
<glyph glyph-name="oe" d="M296 68v385q-23 14 -51 14q-36 0 -59 -20q-23 -19 -35 -51q-13 -32 -17 -66t-4 -70q0 -34 4 -68t17 -66q12 -32 35 -52t59 -20q28 0 51 14zM303 521h238v-60h-178v-156h146v-60h-146v-185h178v-60h-238q-24 -9 -52 -9q-53 -1 -91 23t-60 63t-30 85q-10 46 -10 98 q0 75 16 128t44 84q27 30 59 44t66 14q35 0 58 -9z" unicode="œ"/>
<glyph glyph-name="Scaron" d="M461 525l-65 -10q-10 43 -32 71t-60 27q-44 -1 -66 -31t-22 -76q0 -22 4 -36t14 -27q12 -13 34 -29t64 -42q72 -42 105 -82t33 -111q0 -82 -44 -135t-124 -53q-83 1 -123 49t-48 135l67 9q8 -66 29 -98t77 -32q45 0 72 30t27 89q0 29 -9 53t-26 42q-22 23 -84 59l-7 4 q-37 22 -57 36t-37 33q-16 18 -25 44t-9 62q0 70 43 120t112 50q66 0 104 -41t53 -110zM173 833l127 -62l128 62l23 -36l-151 -102l-151 102z" unicode="Š"/>
<glyph glyph-name="scaron" d="M131 146l60 19q11 -51 38 -81t76 -30q43 0 71 23t27 65q0 39 -23 58t-69 38l-13 5q-7 3 -20 8q-34 14 -54 24t-37 25t-27 38t-10 55q0 63 44 100t109 37q63 0 103 -34t56 -97l-64 -19q-10 41 -32 64t-64 23q-35 0 -60 -18t-25 -51t17 -49t53 -32l111 -49q72 -40 72 -122 q0 -73 -46 -114t-119 -41q-71 -1 -117 41t-57 114zM173 687l127 -62l128 62l23 -36l-151 -102l-151 102z" unicode="š"/>
<glyph glyph-name="Ydieresis" d="M300 341l144 339l62 -25l-173 -392v-263h-67v263l-172 392l62 25zM392 826q24 0 36 -20t12 -43t-12 -43t-36 -20t-36 20t-12 43q0 25 12 44t36 19zM208 826q24 0 36 -20t12 -43t-12 -43t-36 -20t-36 20t-12 43q0 25 12 44t36 19z" unicode="Ÿ"/>
<glyph glyph-name="circumflex" d="M300 613l-127 -62l-24 36l151 102l151 -102l-23 -36z" unicode="ˆ"/>
<glyph glyph-name="tilde" d="M403 680l51 -16q-7 -24 -13 -40t-16 -32t-25 -24q-15 -9 -36 -9q-21 -1 -36 7t-36 24q-14 10 -26 18t-23 8q-17 0 -26 -14t-18 -37q-2 -7 -4 -11l-49 19q8 24 16 40t17 29q26 34 64 34q17 0 31 -7t33 -21l2 -2l3 -3q14 -11 26 -18t23 -7q17 0 25 16t15 38q2 7 2 8z" unicode="˜"/>
<glyph glyph-name="endash" d="M78 229v63h444v-63h-444z" unicode="–"/>
<glyph glyph-name="emdash" d="M0 229v63h600v-63h-600z" unicode="—"/>
<glyph glyph-name="quoteleft" d="M308 469h-92v45q0 49 32 93t79 69l23 -55q-24 -15 -33 -38t-9 -53v-61z" unicode="‘"/>
<glyph glyph-name="quotesinglbase" d="M265 148h92v-45q1 -49 -31 -93t-80 -69l-23 55q24 15 33 38t9 53v61z" unicode="‚"/>
<glyph glyph-name="quotedblleft" d="M235 469h-92v45q-1 49 31 93t80 69l23 -55q-24 -15 -33 -38t-9 -53v-61zM421 469h-92v45q-1 49 31 93t80 69l23 -55q-24 -15 -33 -38t-9 -53v-61z" unicode="“"/>
<glyph glyph-name="quotedblright" d="M365 667h92v-45q1 -48 -31 -92t-80 -70l-23 55q24 15 33 38t9 53v61zM179 667h92v-45q1 -48 -31 -92t-80 -70l-23 55q24 15 33 38t9 53v61z" unicode="”"/>
<glyph glyph-name="dagger" d="M262 347l5 76l-118 -6v73l119 -6l-10 183h85l-10 -183l119 6v-73l-118 6l5 -76l-10 -347h-57z" unicode="†"/>
<glyph glyph-name="daggerdbl" d="M267 439l-121 -6v72l119 -6l-6 168h83l-6 -168l119 6v-72l-121 6v-211l121 6v-73l-119 7l6 -168h-83l6 168l-119 -7v73l121 -6v211z" unicode="‡"/>
<glyph glyph-name="ellipsis" d="M454 0v148h92v-148h-92zM254 0v148h92v-148h-92zM54 0v148h92v-148h-92z" unicode="…"/>
<glyph glyph-name="perthousand" d="M168 551q0 29 -10 52t-34 23t-34 -23t-10 -52t10 -53t34 -23q24 -1 34 23t10 53zM363 676l33 -21l-336 -664l-53 32l294 580q-17 -8 -40 -8q-24 0 -47 9q8 -27 8 -53q0 -50 -25 -88t-73 -38q-46 0 -72 38t-26 88q0 49 26 87t72 38q27 0 52 -12q22 -10 40 -14t41 -5 q29 -1 57 7t49 24zM539 116q1 29 -9 52t-35 23q-24 0 -34 -23t-10 -52t10 -52t34 -23q25 0 35 23t9 52zM593 116q0 -50 -25 -88t-73 -37q-48 -1 -73 37t-25 88t25 88t73 37q48 1 73 -37t25 -88zM320 116q0 29 -10 52t-34 23t-34 -23t-10 -52t10 -52t34 -23t34 23t10 52z M374 116q0 -50 -25 -88t-73 -37q-48 -1 -73 37t-25 88t25 88t73 37q48 1 73 -37t25 -88z" unicode="‰"/>
<glyph glyph-name="guilsinglleft" d="M396 570l47 -49l-205 -191l205 -192l-47 -50l-254 242z" unicode="‹"/>
<glyph glyph-name="guilsinglright" d="M204 570l254 -240l-254 -242l-47 50l205 192l-205 191z" unicode="›"/>
<glyph glyph-name="trademark" d="M248 676v-40h-94v-242h-40v242h-95v40h229zM581 676v-282h-40v242h-2l-96 -242h-26l-93 242h-2v-242h-40v282h68l81 -199l84 199h66z" unicode="™"/>
</font>
</defs>
</svg>
